<svg xmlns="http://www.w3.org/2000/svg" version="1.1" xmlns:xlink="http://www.w3.org/1999/xlink" xmlns:svgjs="http://svgjs.dev/svgjs" width="1000" height="328" viewBox="0 0 1000 328"><g transform="matrix(1,0,0,1,-0.6060336414491303,-0.41720236494714413)"><svg viewBox="0 0 396 130" data-background-color="#f7d65a" preserveAspectRatio="xMidYMid meet" height="328" width="1000" xmlns="http://www.w3.org/2000/svg" xmlns:xlink="http://www.w3.org/1999/xlink"><g id="tight-bounds" transform="matrix(1,0,0,1,0.23998932201385514,0.16535459586319234)"><svg viewBox="0 0 395.52 129.66928994515496" height="129.66928994515496" width="395.52"><g><svg viewBox="0 0 395.52 129.66928994515496" height="129.66928994515496" width="395.52"><g transform="matrix(1,0,0,1,0,107.0688645618338)"><svg viewBox="0 0 395.52 22.600425383321163" height="22.600425383321163" width="395.52"><g id="textblocktransform"><svg viewBox="0 0 395.52 22.600425383321163" height="22.600425383321163" width="395.52" id="textblock"><g><svg viewBox="0 0 395.52 22.600425383321163" height="22.600425383321163" width="395.52"><g transform="matrix(1,0,0,1,0,0)"><svg width="395.52" viewBox="2.2699999809265137 -42.189998626708984 769.0199584960938 43.94999694824219" height="22.600425383321163" data-palette-color="#000000"><path d="M15.94-17.38L15.94-19.14 26.15-19.14Q28.66-19.14 30.41-20.84 32.15-22.53 32.15-25.63L32.15-25.63Q32.15-27.95 30.32-29.8 28.49-31.64 26.15-31.64L26.15-31.64 11.06-31.64 11.06 0 9.3 0 9.3-33.4 26.15-33.4Q29.22-33.4 31.57-31.03 33.91-28.66 33.91-25.63L33.91-25.63Q33.91-21.9 31.64-19.64 29.37-17.38 26.15-17.38L26.15-17.38 15.94-17.38ZM15.94-13.87L15.94-15.63 26.15-15.63Q28.69-15.63 30.85-16.86 33.01-18.09 34.34-20.41 35.67-22.73 35.67-25.63L35.67-25.63Q35.67-29.39 32.8-32.28 29.93-35.16 26.15-35.16L26.15-35.16 7.54-35.16 7.54 0 5.79 0 5.79-36.91 26.15-36.91Q29.1-36.91 31.71-35.35 34.33-33.79 35.88-31.18 37.43-28.56 37.43-25.63L37.43-25.63Q37.43-22.31 35.86-19.59 34.3-16.87 31.73-15.37 29.15-13.87 26.15-13.87L26.15-13.87 15.94-13.87ZM15.94-10.35L15.94-12.11 26.15-12.11Q28.76-12.11 31.15-13.15 33.54-14.18 35.31-15.95 37.08-17.72 38.13-20.25 39.18-22.78 39.18-25.63L39.18-25.63Q39.18-29.05 37.4-32.07 35.62-35.08 32.6-36.88 29.59-38.67 26.15-38.67L26.15-38.67 4.03-38.67 4.03 0 2.27 0 2.27-40.43 26.15-40.43Q30.05-40.43 33.47-38.39 36.89-36.35 38.92-32.93 40.94-29.52 40.94-25.63L40.94-25.63Q40.94-22.17 39.75-19.25 38.55-16.33 36.52-14.4 34.5-12.48 31.81-11.41 29.13-10.35 26.15-10.35L26.15-10.35 15.94-10.35ZM14.58-28.13L14.58 0 12.82 0 12.82-29.88 26.15-29.88Q27.88-29.88 29.14-28.61 30.4-27.34 30.4-25.63L30.4-25.63Q30.4-20.9 26.15-20.9L26.15-20.9 15.94-20.9 15.94-22.66 26.15-22.66Q27.32-22.66 27.98-23.32 28.64-23.97 28.64-25.63L28.64-25.63Q28.64-26.71 27.92-27.42 27.2-28.13 26.15-28.13L26.15-28.13 14.58-28.13ZM69.68-11.87L62.25-11.87 62.96-13.62 68.97-13.62 69.68-11.87ZM71.09-8.35L60.89-8.35 61.57-10.11 70.33-10.11 71.09-8.35ZM72.46-4.83L59.52-4.83 60.2-6.59 71.73-6.59 72.46-4.83ZM60.28-38.06L45.24 0 43.33 0 59.32-40.43 61.23-40.43 77.19 0 75.31 0 60.28-38.06ZM47.12 0L60.5-33.89 61.5-31.64 49 0 47.12 0ZM50.9 0L62.45-29.25 63.38-26.83 52.81 0 50.9 0ZM54.69 0L64.3-24.41 65.23-21.95 56.56 0 54.69 0ZM72.56-40.43L88.55 0 86.64 0 70.68-40.43 72.56-40.43ZM66.89-40.43L68.77-40.43 84.76 0 82.88 0 66.89-40.43ZM63.11-40.43L64.99-40.43 80.98 0 79.07 0 63.11-40.43ZM119.58-26.61L119.58-26.61 118.13-25.66Q116.82-27.61 114.7-28.75 112.59-29.88 110.13-29.88L110.13-29.88Q106.12-29.88 103.29-27.05 100.46-24.22 100.46-20.21 100.46-16.21 103.29-13.38 106.12-10.55 110.13-10.55L110.13-10.55Q112.59-10.55 114.7-11.69 116.82-12.84 118.13-14.79L118.13-14.79 119.55-13.77Q117.99-11.47 115.5-10.13 113.01-8.79 110.13-8.79L110.13-8.79Q107.81-8.79 105.7-9.69 103.58-10.6 102.05-12.13 100.51-13.67 99.6-15.78 98.7-17.9 98.7-20.21 98.7-22.53 99.6-24.65 100.51-26.76 102.05-28.3 103.58-29.83 105.7-30.74 107.81-31.64 110.13-31.64L110.13-31.64Q113.03-31.64 115.52-30.29 118.01-28.93 119.58-26.61ZM122.48-28.61L122.48-28.61 121.02-27.66Q119.21-30.3 116.34-31.85 113.47-33.4 110.13-33.4L110.13-33.4Q106.54-33.4 103.51-31.63 100.48-29.86 98.71-26.83 96.94-23.8 96.94-20.21 96.94-16.63 98.71-13.6 100.48-10.57 103.51-8.8 106.54-7.03 110.13-7.03L110.13-7.03Q113.47-7.03 116.35-8.59 119.23-10.16 121.04-12.82L121.04-12.82 122.48-11.82Q120.43-8.79 117.17-7.03 113.91-5.27 110.13-5.27L110.13-5.27Q106.07-5.27 102.63-7.28 99.19-9.28 97.19-12.72 95.19-16.16 95.19-20.21 95.19-24.27 97.19-27.71 99.19-31.15 102.63-33.15 106.07-35.16 110.13-35.16L110.13-35.16Q113.91-35.16 117.17-33.4 120.43-31.64 122.48-28.61ZM125.41-30.57L125.41-30.57 123.95-29.61Q121.65-32.98 118-34.95 114.35-36.91 110.13-36.91L110.13-36.91Q106.73-36.91 103.63-35.6 100.53-34.28 98.3-32.04 96.06-29.81 94.75-26.71 93.43-23.61 93.43-20.21 93.43-16.82 94.75-13.72 96.06-10.62 98.3-8.39 100.53-6.15 103.63-4.83 106.73-3.52 110.13-3.52L110.13-3.52Q114.37-3.52 118.01-5.49 121.65-7.47 123.95-10.84L123.95-10.84 125.36-9.79Q122.82-6.08 118.81-3.92 114.79-1.76 110.13-1.76L110.13-1.76Q105.12-1.76 100.87-4.24 96.63-6.71 94.15-10.96 91.67-15.21 91.67-20.21 91.67-25.22 94.15-29.47 96.63-33.72 100.87-36.19 105.12-38.67 110.13-38.67L110.13-38.67Q114.81-38.67 118.84-36.49 122.87-34.3 125.41-30.57ZM128.29-32.57L128.29-32.57 126.83-31.62Q124.04-35.69 119.64-38.06 115.23-40.43 110.13-40.43L110.13-40.43Q106.03-40.43 102.28-38.83 98.53-37.23 95.82-34.52 93.11-31.81 91.51-28.06 89.91-24.32 89.91-20.21 89.91-16.11 91.51-12.37 93.11-8.62 95.82-5.91 98.53-3.2 102.28-1.6 106.03 0 110.13 0L110.13 0Q115.23 0 119.65-2.39 124.07-4.79 126.85-8.86L126.85-8.86 128.27-7.79Q125.24-3.39 120.45-0.82 115.67 1.76 110.13 1.76L110.13 1.76Q105.66 1.76 101.59 0.01 97.53-1.73 94.59-4.68 91.65-7.62 89.9-11.68 88.15-15.75 88.15-20.21 88.15-24.68 89.9-28.75 91.65-32.81 94.59-35.75 97.53-38.7 101.59-40.44 105.66-42.19 110.13-42.19L110.13-42.19Q115.69-42.19 120.48-39.6 125.26-37.01 128.29-32.57ZM170.04-10.55L150.77-10.55 153.68-12.3 170.04-12.3 170.04-10.55ZM170.04-7.03L145.01-7.03 147.97-8.79 170.04-8.79 170.04-7.03ZM170.04-3.52L139.18-3.52 142.16-5.27 170.04-5.27 170.04-3.52ZM131.32-29.88L150.58-29.88 147.67-28.13 131.32-28.13 131.32-29.88ZM131.32-33.4L156.34-33.4 153.39-31.64 131.32-31.64 131.32-33.4ZM131.32-36.91L162.18-36.91 159.2-35.16 131.32-35.16 131.32-36.91ZM131.32-10.28L170.04-36.3 170.04-34.25 131.32-8.23 131.32-10.28ZM131.32-6.18L170.04-32.15 170.04-30.08 131.32-4.08 131.32-6.18ZM131.32-2.08L170.04-28.03 170.04-25.98 133.93-1.76 170.04-1.76 170.04 0 131.32 0Q131.32 0 131.32-2.08L131.32-2.08ZM131.32-14.4L167.42-38.67 131.32-38.67 131.32-40.43 170.04-40.43Q170.04-40.43 170.04-38.33L170.04-38.33 131.32-12.38 131.32-14.4ZM186.66-40.43L186.66 0 184.9 0 184.9-40.43 186.66-40.43ZM183.14-40.43L183.14 0 181.39 0 181.39-40.43 183.14-40.43ZM179.63-40.43L179.63 0 177.87 0 177.87-40.43 179.63-40.43ZM176.11-40.43L176.11 0 174.36 0 174.36-40.43 176.11-40.43ZM209.83 0L199.5-20.21 209.83-40.43 211.78-40.43 201.45-20.21 211.78 0 209.83 0ZM205.9 0L195.57-20.21 205.9-40.43 207.85-40.43 197.52-20.21 207.85 0 205.9 0ZM201.97 0L191.64-20.21 201.97-40.43 203.92-40.43 193.59-20.21 203.92 0 201.97 0ZM198.04 0L187.69-20.21 198.04-40.43 199.99-40.43 189.64-20.21 199.99 0 198.04 0ZM240.03-11.87L232.6-11.87 233.31-13.62 239.32-13.62 240.03-11.87ZM241.44-8.35L231.24-8.35 231.92-10.11 240.69-10.11 241.44-8.35ZM242.81-4.83L229.87-4.83 230.55-6.59 242.08-6.59 242.81-4.83ZM230.63-38.06L215.59 0 213.68 0 229.68-40.43 231.58-40.43 247.55 0 245.67 0 230.63-38.06ZM217.47 0L230.85-33.89 231.85-31.64 219.35 0 217.47 0ZM221.25 0L232.8-29.25 233.73-26.83 223.16 0 221.25 0ZM225.04 0L234.66-24.41 235.58-21.95 226.92 0 225.04 0ZM242.91-40.43L258.9 0 256.99 0 241.03-40.43 242.91-40.43ZM237.24-40.43L239.12-40.43 255.11 0 253.23 0 237.24-40.43ZM233.46-40.43L235.34-40.43 251.33 0 249.43 0 233.46-40.43ZM271.59-40.43L278.96-12.43 278.13-8.96 269.78-40.43 271.59-40.43ZM275.2-40.43L280.79-19.19 279.89-15.82 273.42-40.43 275.2-40.43ZM278.86-40.43L282.62-26.2 281.7-22.78 277.03-40.43 278.86-40.43ZM293.9-16.38L289.58 0 287.75 0 298.44-40.38 298.42-40.43 300.28-40.43 300.28-40.38 305.04-23.97 309.41-40.43 311.24-40.43 300.52 0 298.69 0 293.9-16.38ZM296.61-40.43L285.92 0 284.11 0 294.81-40.43 296.61-40.43ZM292.98-40.43L282.28 0 280.48 0 291.19-40.43 292.98-40.43ZM322.15-40.43L311.46 0 309.63 0 320.32-40.43 322.15-40.43ZM318.49-40.43L307.8 0 305.99 0 316.68-40.43 318.49-40.43ZM314.85-40.43L304.16 0 302.35 0 313.07-40.43 314.85-40.43ZM267.95-40.43L277.74-3.47 287.53-40.43 289.36-40.43 278.64 0 276.81 0 266.12-40.43 267.95-40.43ZM295.73-23.27L294.83-19.82 299.57-3.32 300.5-6.81 295.73-23.27ZM297.57-30.18L296.64-26.71 301.4-10.25 302.33-13.7 297.57-30.18ZM299.4-37.06L298.44-33.54 303.23-17.09 304.13-20.56 299.4-37.06ZM344.56-17.38L344.56-19.14 354.76-19.14Q357.28-19.14 359.02-20.84 360.77-22.53 360.77-25.63L360.77-25.63Q360.77-27.95 358.94-29.8 357.11-31.64 354.76-31.64L354.76-31.64 339.67-31.64 339.67 0 337.92 0 337.92-33.4 354.76-33.4Q357.84-33.4 360.18-31.03 362.53-28.66 362.53-25.63L362.53-25.63Q362.53-21.9 360.26-19.64 357.99-17.38 354.76-17.38L354.76-17.38 344.56-17.38ZM344.56-13.87L344.56-15.63 354.76-15.63Q357.3-15.63 359.46-16.86 361.62-18.09 362.95-20.41 364.28-22.73 364.28-25.63L364.28-25.63Q364.28-29.39 361.42-32.28 358.55-35.16 354.76-35.16L354.76-35.16 336.16-35.16 336.16 0 334.4 0 334.4-36.91 354.76-36.91Q357.72-36.91 360.33-35.35 362.94-33.79 364.49-31.18 366.04-28.56 366.04-25.63L366.04-25.63Q366.04-22.31 364.48-19.59 362.92-16.87 360.34-15.37 357.77-13.87 354.76-13.87L354.76-13.87 344.56-13.87ZM344.56-10.35L344.56-12.11 354.76-12.11Q357.37-12.11 359.77-13.15 362.16-14.18 363.93-15.95 365.7-17.72 366.75-20.25 367.8-22.78 367.8-25.63L367.8-25.63Q367.8-29.05 366.02-32.07 364.24-35.08 361.22-36.88 358.21-38.67 354.76-38.67L354.76-38.67 332.64-38.67 332.64 0 330.89 0 330.89-40.43 354.76-40.43Q358.67-40.43 362.09-38.39 365.5-36.35 367.53-32.93 369.56-29.52 369.56-25.63L369.56-25.63Q369.56-22.17 368.36-19.25 367.17-16.33 365.14-14.4 363.11-12.48 360.43-11.41 357.74-10.35 354.76-10.35L354.76-10.35 344.56-10.35ZM343.19-28.13L343.19 0 341.43 0 341.43-29.88 354.76-29.88Q356.5-29.88 357.75-28.61 359.01-27.34 359.01-25.63L359.01-25.63Q359.01-20.9 354.76-20.9L354.76-20.9 344.56-20.9 344.56-22.66 354.76-22.66Q355.93-22.66 356.59-23.32 357.25-23.97 357.25-25.63L357.25-25.63Q357.25-26.71 356.53-27.42 355.81-28.13 354.76-28.13L354.76-28.13 343.19-28.13ZM398.29-11.87L390.87-11.87 391.58-13.62 397.58-13.62 398.29-11.87ZM399.71-8.35L389.5-8.35 390.18-10.11 398.95-10.11 399.71-8.35ZM401.07-4.83L388.13-4.83 388.82-6.59 400.34-6.59 401.07-4.83ZM388.89-38.06L373.85 0 371.95 0 387.94-40.43 389.84-40.43 405.81 0 403.93 0 388.89-38.06ZM375.73 0L389.11-33.89 390.11-31.64 377.61 0 375.73 0ZM379.52 0L391.06-29.25 391.99-26.83 381.42 0 379.52 0ZM383.3 0L392.92-24.41 393.85-21.95 385.18 0 383.3 0ZM401.17-40.43L417.16 0 415.26 0 399.29-40.43 401.17-40.43ZM395.51-40.43L397.39-40.43 413.38 0 411.5 0 395.51-40.43ZM391.72-40.43L393.6-40.43 409.59 0 407.69 0 391.72-40.43ZM448.19-26.61L448.19-26.61 446.75-25.66Q445.43-27.61 443.32-28.75 441.21-29.88 438.74-29.88L438.74-29.88Q434.74-29.88 431.91-27.05 429.07-24.22 429.07-20.21 429.07-16.21 431.91-13.38 434.74-10.55 438.74-10.55L438.74-10.55Q441.21-10.55 443.32-11.69 445.43-12.84 446.75-14.79L446.75-14.79 448.17-13.77Q446.6-11.47 444.11-10.13 441.62-8.79 438.74-8.79L438.74-8.79Q436.42-8.79 434.31-9.69 432.2-10.6 430.66-12.13 429.12-13.67 428.22-15.78 427.32-17.9 427.32-20.21 427.32-22.53 428.22-24.65 429.12-26.76 430.66-28.3 432.2-29.83 434.31-30.74 436.42-31.64 438.74-31.64L438.74-31.64Q441.65-31.64 444.14-30.29 446.63-28.93 448.19-26.61ZM451.1-28.61L451.1-28.61 449.63-27.66Q447.82-30.3 444.96-31.85 442.09-33.4 438.74-33.4L438.74-33.4Q435.15-33.4 432.13-31.63 429.1-29.86 427.33-26.83 425.56-23.8 425.56-20.21 425.56-16.63 427.33-13.6 429.1-10.57 432.13-8.8 435.15-7.03 438.74-7.03L438.74-7.03Q442.09-7.03 444.97-8.59 447.85-10.16 449.66-12.82L449.66-12.82 451.1-11.82Q449.04-8.79 445.79-7.03 442.53-5.27 438.74-5.27L438.74-5.27Q434.69-5.27 431.25-7.28 427.8-9.28 425.8-12.72 423.8-16.16 423.8-20.21 423.8-24.27 425.8-27.71 427.8-31.15 431.25-33.15 434.69-35.16 438.74-35.16L438.74-35.16Q442.53-35.16 445.79-33.4 449.04-31.64 451.1-28.61ZM454.03-30.57L454.03-30.57 452.56-29.61Q450.27-32.98 446.62-34.95 442.97-36.91 438.74-36.91L438.74-36.91Q435.35-36.91 432.25-35.6 429.15-34.28 426.91-32.04 424.68-29.81 423.36-26.71 422.04-23.61 422.04-20.21 422.04-16.82 423.36-13.72 424.68-10.62 426.91-8.39 429.15-6.15 432.25-4.83 435.35-3.52 438.74-3.52L438.74-3.52Q442.99-3.52 446.63-5.49 450.27-7.47 452.56-10.84L452.56-10.84 453.98-9.79Q451.44-6.08 447.42-3.92 443.41-1.76 438.74-1.76L438.74-1.76Q433.74-1.76 429.49-4.24 425.24-6.71 422.76-10.96 420.29-15.21 420.29-20.21 420.29-25.22 422.76-29.47 425.24-33.72 429.49-36.19 433.74-38.67 438.74-38.67L438.74-38.67Q443.43-38.67 447.46-36.49 451.49-34.3 454.03-30.57ZM456.91-32.57L456.91-32.57 455.44-31.62Q452.66-35.69 448.25-38.06 443.84-40.43 438.74-40.43L438.74-40.43Q434.64-40.43 430.89-38.83 427.15-37.23 424.44-34.52 421.73-31.81 420.13-28.06 418.53-24.32 418.53-20.21 418.53-16.11 420.13-12.37 421.73-8.62 424.44-5.91 427.15-3.2 430.89-1.6 434.64 0 438.74 0L438.74 0Q443.84 0 448.26-2.39 452.68-4.79 455.47-8.86L455.47-8.86 456.88-7.79Q453.85-3.39 449.07-0.82 444.28 1.76 438.74 1.76L438.74 1.76Q434.27 1.76 430.21 0.01 426.14-1.73 423.2-4.68 420.26-7.62 418.51-11.68 416.77-15.75 416.77-20.21 416.77-24.68 418.51-28.75 420.26-32.81 423.2-35.75 426.14-38.7 430.21-40.44 434.27-42.19 438.74-42.19L438.74-42.19Q444.31-42.19 449.09-39.6 453.88-37.01 456.91-32.57ZM498.65-10.55L479.39-10.55 482.29-12.3 498.65-12.3 498.65-10.55ZM498.65-7.03L473.63-7.03 476.58-8.79 498.65-8.79 498.65-7.03ZM498.65-3.52L467.79-3.52 470.77-5.27 498.65-5.27 498.65-3.52ZM459.93-29.88L479.19-29.88 476.29-28.13 459.93-28.13 459.93-29.88ZM459.93-33.4L484.96-33.4 482-31.64 459.93-31.64 459.93-33.4ZM459.93-36.91L490.79-36.91 487.81-35.16 459.93-35.16 459.93-36.91ZM459.93-10.28L498.65-36.3 498.65-34.25 459.93-8.23 459.93-10.28ZM459.93-6.18L498.65-32.15 498.65-30.08 459.93-4.08 459.93-6.18ZM459.93-2.08L498.65-28.03 498.65-25.98 462.54-1.76 498.65-1.76 498.65 0 459.93 0Q459.93 0 459.93-2.08L459.93-2.08ZM459.93-14.4L496.04-38.67 459.93-38.67 459.93-40.43 498.65-40.43Q498.65-40.43 498.65-38.33L498.65-38.33 459.93-12.38 459.93-14.4ZM515.28-40.43L515.28 0 513.52 0 513.52-40.43 515.28-40.43ZM511.76-40.43L511.76 0 510 0 510-40.43 511.76-40.43ZM508.24-40.43L508.24 0 506.49 0 506.49-40.43 508.24-40.43ZM504.73-40.43L504.73 0 502.97 0 502.97-40.43 504.73-40.43ZM538.44 0L528.12-20.21 538.44-40.43 540.4-40.43 530.07-20.21 540.4 0 538.44 0ZM534.51 0L524.19-20.21 534.51-40.43 536.47-40.43 526.14-20.21 536.47 0 534.51 0ZM530.58 0L520.26-20.21 530.58-40.43 532.54-40.43 522.21-20.21 532.54 0 530.58 0ZM526.65 0L516.3-20.21 526.65-40.43 528.61-40.43 518.25-20.21 528.61 0 526.65 0ZM558-27.05Q555.17-24.22 555.17-20.21 555.17-16.21 558-13.38 560.83-10.55 564.83-10.55 568.84-10.55 571.67-13.38 574.5-16.21 574.5-20.21 574.5-24.22 571.67-27.05 568.84-29.88 564.83-29.88 560.83-29.88 558-27.05ZM554.31-15.78Q553.41-17.9 553.41-20.21 553.41-22.53 554.31-24.65 555.21-26.76 556.75-28.3 558.29-29.83 560.4-30.74 562.51-31.64 564.83-31.64 567.15-31.64 569.26-30.74 571.38-29.83 572.91-28.3 574.45-26.76 575.36-24.65 576.26-22.53 576.26-20.21 576.26-17.9 575.36-15.78 574.45-13.67 572.91-12.13 571.38-10.6 569.26-9.69 567.15-8.79 564.83-8.79 562.51-8.79 560.4-9.69 558.29-10.6 556.75-12.13 555.21-13.67 554.31-15.78ZM553.42-26.83Q551.65-23.8 551.65-20.21 551.65-16.63 553.42-13.6 555.19-10.57 558.22-8.8 561.24-7.03 564.83-7.03 568.42-7.03 571.45-8.8 574.48-10.57 576.25-13.6 578.02-16.63 578.02-20.21 578.02-23.8 576.25-26.83 574.48-29.86 571.45-31.63 568.42-33.4 564.83-33.4 561.24-33.4 558.22-31.63 555.19-29.86 553.42-26.83ZM551.89-12.72Q549.89-16.16 549.89-20.21 549.89-24.27 551.89-27.71 553.9-31.15 557.34-33.15 560.78-35.16 564.83-35.16 568.89-35.16 572.33-33.15 575.77-31.15 577.77-27.71 579.77-24.27 579.77-20.21 579.77-16.16 577.77-12.72 575.77-9.28 572.33-7.28 568.89-5.27 564.83-5.27 560.78-5.27 557.34-7.28 553.9-9.28 551.89-12.72ZM549.45-26.71Q548.13-23.61 548.13-20.21 548.13-16.82 549.45-13.72 550.77-10.62 553-8.39 555.24-6.15 558.34-4.83 561.44-3.52 564.83-3.52 568.23-3.52 571.33-4.83 574.43-6.15 576.66-8.39 578.9-10.62 580.21-13.72 581.53-16.82 581.53-20.21 581.53-23.61 580.21-26.71 578.9-29.81 576.66-32.04 574.43-34.28 571.33-35.6 568.23-36.91 564.83-36.91 561.44-36.91 558.34-35.6 555.24-34.28 553-32.04 550.77-29.81 549.45-26.71ZM548.85-10.96Q546.38-15.21 546.38-20.21 546.38-25.22 548.85-29.47 551.33-33.72 555.58-36.19 559.83-38.67 564.83-38.67 569.84-38.67 574.09-36.19 578.33-33.72 580.81-29.47 583.29-25.22 583.29-20.21 583.29-15.21 580.81-10.96 578.33-6.71 574.09-4.24 569.84-1.76 564.83-1.76 559.83-1.76 555.58-4.24 551.33-6.71 548.85-10.96ZM546.22-28.06Q544.62-24.32 544.62-20.21 544.62-16.11 546.22-12.37 547.82-8.62 550.53-5.91 553.24-3.2 556.98-1.6 560.73 0 564.83 0 568.93 0 572.68-1.6 576.43-3.2 579.14-5.91 581.85-8.62 583.45-12.37 585.05-16.11 585.05-20.21 585.05-24.32 583.45-28.06 581.85-31.81 579.14-34.52 576.43-37.23 572.68-38.83 568.93-40.43 564.83-40.43 560.73-40.43 556.98-38.83 553.24-37.23 550.53-34.52 547.82-31.81 546.22-28.06ZM544.61-11.68Q542.86-15.75 542.86-20.21 542.86-24.68 544.61-28.75 546.35-32.81 549.29-35.75 552.24-38.7 556.3-40.44 560.37-42.19 564.83-42.19 569.3-42.19 573.37-40.44 577.43-38.7 580.37-35.75 583.31-32.81 585.06-28.75 586.81-24.68 586.81-20.21 586.81-15.75 585.06-11.68 583.31-7.62 580.37-4.68 577.43-1.73 573.37 0.01 569.3 1.76 564.83 1.76 560.37 1.76 556.3 0.01 552.24-1.73 549.29-4.68 546.35-7.62 544.61-11.68ZM619.54 0L619.54-14.75 621.3-18.07 621.3 0 619.54 0ZM623.06 0L623.06-21.48 624.82-24.8 624.82 0 623.06 0ZM626.57 0L626.57-28.13 628.33-31.47 628.33 0 626.57 0ZM627.87-40.43L614.78-15.58 613.78-17.41 625.89-40.43 627.87-40.43ZM623.89-40.43L612.76-19.41 611.73-21.26 621.89-40.43 623.89-40.43ZM600.99 0L600.99-17.87 602.75-14.55 602.75 0 600.99 0ZM597.47 0L597.47-24.56 599.23-21.24 599.23 0 597.47 0ZM593.96 0L593.96-31.25 595.71-27.91 595.71 0 593.96 0ZM592.42-40.43L608.17-10.55 606.19-10.55 592.2-37.08 592.2 0 590.44 0 590.44-40.43 592.42-40.43ZM596.42-40.43L612.15-10.55 610.14-10.55 594.42-40.43 596.42-40.43ZM630.09 0L630.09-37.08 616.1-10.55 614.1-10.55 598.4-40.43 600.38-40.43 615.12-12.4 629.85-40.43 631.85-40.43 631.85 0 630.09 0ZM661.36-11.87L653.94-11.87 654.65-13.62 660.65-13.62 661.36-11.87ZM662.78-8.35L652.57-8.35 653.26-10.11 662.02-10.11 662.78-8.35ZM664.14-4.83L651.21-4.83 651.89-6.59 663.41-6.59 664.14-4.83ZM651.96-38.06L636.92 0 635.02 0 651.01-40.43 652.91-40.43 668.88 0 667 0 651.96-38.06ZM638.8 0L652.18-33.89 653.18-31.64 640.68 0 638.8 0ZM642.59 0L654.13-29.25 655.06-26.83 644.49 0 642.59 0ZM646.37 0L655.99-24.41 656.92-21.95 648.25 0 646.37 0ZM664.24-40.43L680.23 0 678.33 0 662.36-40.43 664.24-40.43ZM658.58-40.43L660.46-40.43 676.45 0 674.57 0 658.58-40.43ZM654.79-40.43L656.67-40.43 672.67 0 670.76 0 654.79-40.43ZM711.26-26.61L711.26-26.61 709.82-25.66Q708.5-27.61 706.39-28.75 704.28-29.88 701.81-29.88L701.81-29.88Q697.81-29.88 694.98-27.05 692.14-24.22 692.14-20.21 692.14-16.21 694.98-13.38 697.81-10.55 701.81-10.55L701.81-10.55Q704.28-10.55 706.39-11.69 708.5-12.84 709.82-14.79L709.82-14.79 711.24-13.77Q709.67-11.47 707.18-10.13 704.69-8.79 701.81-8.79L701.81-8.79Q699.49-8.79 697.38-9.69 695.27-10.6 693.73-12.13 692.19-13.67 691.29-15.78 690.39-17.9 690.39-20.21 690.39-22.53 691.29-24.65 692.19-26.76 693.73-28.3 695.27-29.83 697.38-30.74 699.49-31.64 701.81-31.64L701.81-31.64Q704.72-31.64 707.21-30.29 709.7-28.93 711.26-26.61ZM714.17-28.61L714.17-28.61 712.7-27.66Q710.89-30.3 708.03-31.85 705.16-33.4 701.81-33.4L701.81-33.4Q698.22-33.4 695.2-31.63 692.17-29.86 690.4-26.83 688.63-23.8 688.63-20.21 688.63-16.63 690.4-13.6 692.17-10.57 695.2-8.8 698.22-7.03 701.81-7.03L701.81-7.03Q705.16-7.03 708.04-8.59 710.92-10.16 712.73-12.82L712.73-12.82 714.17-11.82Q712.12-8.79 708.86-7.03 705.6-5.27 701.81-5.27L701.81-5.27Q697.76-5.27 694.32-7.28 690.88-9.28 688.87-12.72 686.87-16.16 686.87-20.21 686.87-24.27 688.87-27.71 690.88-31.15 694.32-33.15 697.76-35.16 701.81-35.16L701.81-35.16Q705.6-35.16 708.86-33.4 712.12-31.64 714.17-28.61ZM717.1-30.57L717.1-30.57 715.63-29.61Q713.34-32.98 709.69-34.95 706.04-36.91 701.81-36.91L701.81-36.91Q698.42-36.91 695.32-35.6 692.22-34.28 689.98-32.04 687.75-29.81 686.43-26.71 685.11-23.61 685.11-20.21 685.11-16.82 686.43-13.72 687.75-10.62 689.98-8.39 692.22-6.15 695.32-4.83 698.42-3.52 701.81-3.52L701.81-3.52Q706.06-3.52 709.7-5.49 713.34-7.47 715.63-10.84L715.63-10.84 717.05-9.79Q714.51-6.08 710.49-3.92 706.48-1.76 701.81-1.76L701.81-1.76Q696.81-1.76 692.56-4.24 688.31-6.71 685.83-10.96 683.36-15.21 683.36-20.21 683.36-25.22 685.83-29.47 688.31-33.72 692.56-36.19 696.81-38.67 701.81-38.67L701.81-38.67Q706.5-38.67 710.53-36.49 714.56-34.3 717.1-30.57ZM719.98-32.57L719.98-32.57 718.51-31.62Q715.73-35.69 711.32-38.06 706.92-40.43 701.81-40.43L701.81-40.43Q697.71-40.43 693.96-38.83 690.22-37.23 687.51-34.52 684.8-31.81 683.2-28.06 681.6-24.32 681.6-20.21 681.6-16.11 683.2-12.37 684.8-8.62 687.51-5.91 690.22-3.2 693.96-1.6 697.71 0 701.81 0L701.81 0Q706.92 0 711.33-2.39 715.75-4.79 718.54-8.86L718.54-8.86 719.95-7.79Q716.93-3.39 712.14-0.82 707.35 1.76 701.81 1.76L701.81 1.76Q697.35 1.76 693.28 0.01 689.22-1.73 686.27-4.68 683.33-7.62 681.59-11.68 679.84-15.75 679.84-20.21 679.84-24.68 681.59-28.75 683.33-32.81 686.27-35.75 689.22-38.7 693.28-40.44 697.35-42.19 701.81-42.19L701.81-42.19Q707.38-42.19 712.16-39.6 716.95-37.01 719.98-32.57ZM733.89 0L733.89-40.43 735.65-40.43 735.65 0 733.89 0ZM730.37 0L730.37-40.43 732.13-40.43 732.13 0 730.37 0ZM726.86 0L726.86-40.43 728.62-40.43 728.62 0 726.86 0ZM723.34 0L723.34-40.43 725.1-40.43 725.1 0 723.34 0ZM749.07-40.43L749.07 0 747.32 0 747.32-40.43 749.07-40.43ZM745.56-40.43L745.56 0 743.8 0 743.8-40.43 745.56-40.43ZM742.04-40.43L742.04 0 740.28 0 740.28-40.43 742.04-40.43ZM752.59-15.82L752.59-8.79 771.29-8.79 771.29-7.03 752.59-7.03 752.59-5.27 771.29-5.27 771.29-3.52 752.59-3.52 752.59-1.76 771.29-1.76 771.29 0 750.83 0 750.83-40.43 771.29-40.43 771.29-38.67 752.59-38.67 752.59-36.91 771.29-36.91 771.29-35.16 752.59-35.16 752.59-33.4 771.29-33.4 771.29-31.64 752.59-31.64 752.59-24.61 762.18-24.61 762.18-22.85 752.59-22.85 752.59-21.09 762.18-21.09 762.18-19.34 752.59-19.34 752.59-17.58 762.18-17.58 762.18-15.82 752.59-15.82Z" opacity="1" transform="matrix(1,0,0,1,0,0)" fill="#000000" class="undefined-text-0" data-fill-palette-color="primary" id="text-0"></path></svg></g></svg></g></svg></g></svg></g><g transform="matrix(1,0,0,1,149.560985741876,0)"><svg viewBox="0 0 96.39802851624795 96.39802851624795" height="96.39802851624795" width="96.39802851624795"><g><svg></svg></g><g id="icon-0"><svg viewBox="0 0 96.39802851624795 96.39802851624795" height="96.39802851624795" width="96.39802851624795"><g><path d="M0 48.199c0-26.62 21.579-48.199 48.199-48.199 26.62 0 48.199 21.579 48.199 48.199 0 26.62-21.579 48.199-48.199 48.199-26.62 0-48.199-21.579-48.199-48.199zM48.199 94.36c25.494 0 46.161-20.667 46.161-46.161 0-25.494-20.667-46.161-46.161-46.161-25.494 0-46.161 20.667-46.161 46.161 0 25.494 20.667 46.161 46.161 46.161z" data-fill-palette-color="tertiary" fill="#000000" stroke="transparent"></path></g><g transform="matrix(1,0,0,1,32.27562798469681,32.84224696975629)"><svg viewBox="0 0 31.846772546854332 30.713534576735363" height="30.713534576735363" width="31.846772546854332"><g><svg xmlns="http://www.w3.org/2000/svg" xmlns:xlink="http://www.w3.org/1999/xlink" version="1.1" x="0" y="0" viewBox="10.829998016357422 8.960000038146973 82.33999633789062 79.41000366210938" enable-background="new 0 0 100 100" xml:space="preserve" height="30.713534576735363" width="31.846772546854332" class="icon-s-0" data-fill-palette-color="accent" id="s-0"><g fill="#000000" data-fill-palette-color="accent"><path d="M54.17 72.777c-0.029 0.061-0.046 0.128-0.048 0.199-0.002 0.078 0.018 0.149 0.048 0.216V84.63l11 0.74v-5.993c0.025-0.058 0.04-0.12 0.041-0.187 0.001-0.073-0.014-0.141-0.041-0.205V11.62l-11 0.92v11.88c0 0.007 0 0.01 0 0.014 0 0.001 0 0.002 0 0.003 0 0.001 0 0.001 0 0.002 0 0.001 0 0.001 0 0.002V72.777zM55.17 13.46l9-0.75v4.925l-9 0.285V13.46zM55.17 18.922l9-0.285v1.99l-9 0.285V18.922zM55.17 21.913l9-0.285v1.991l-9 0.285V21.913zM55.17 24.905l9-0.285v48.069l-9-0.19V24.905zM55.17 73.499l9 0.19v1.99l-9-0.19V73.499zM55.17 76.488l9 0.19v1.99l-9-0.19V76.488zM55.17 79.478l9 0.19V84.3l-9-0.6V79.478z" fill="#000000" data-fill-palette-color="accent"></path><path d="M73.167 9.5H70.83h-3.497v2h3.497v74.333h-3.497v2h5.834V87.83H93.17V9.5H73.167zM91.17 85.83H73.167V11.5H91.17V85.83z" fill="#000000" data-fill-palette-color="accent"></path><path d="M14.83 54.98h1.34c0.64 0 1.16-0.52 1.16-1.16v-6.15c0-0.65-0.52-1.17-1.16-1.17h-1.34c-0.64 0-1.16 0.52-1.16 1.17v6.15C13.67 54.46 14.19 54.98 14.83 54.98zM14.67 47.67c0-0.1 0.07-0.17 0.16-0.17h1.34c0.09 0 0.16 0.07 0.16 0.17v6.15c0 0.09-0.07 0.16-0.16 0.16h-1.34c-0.09 0-0.16-0.07-0.16-0.16V47.67z" fill="#000000" data-fill-palette-color="accent"></path><path d="M75.5 54.98h1.33c0.65 0 1.17-0.52 1.17-1.16v-6.15c0-0.65-0.52-1.17-1.17-1.17H75.5c-0.64 0-1.17 0.52-1.17 1.17v6.15C74.33 54.46 74.86 54.98 75.5 54.98zM75.33 47.67c0-0.1 0.08-0.17 0.17-0.17h1.33c0.09 0 0.17 0.07 0.17 0.17v6.15c0 0.09-0.08 0.16-0.17 0.16H75.5c-0.09 0-0.17-0.07-0.17-0.16V47.67z" fill="#000000" data-fill-palette-color="accent"></path><path d="M16.833 19.167H26.5c0.276 0 0.5-0.224 0.5-0.5s-0.224-0.5-0.5-0.5h-9.667c-0.276 0-0.5 0.224-0.5 0.5S16.557 19.167 16.833 19.167z" fill="#000000" data-fill-palette-color="accent"></path><path d="M16.833 22.167H26.5c0.276 0 0.5-0.224 0.5-0.5s-0.224-0.5-0.5-0.5h-9.667c-0.276 0-0.5 0.224-0.5 0.5S16.557 22.167 16.833 22.167z" fill="#000000" data-fill-palette-color="accent"></path><path d="M16.833 25.167H26.5c0.276 0 0.5-0.224 0.5-0.5s-0.224-0.5-0.5-0.5h-9.667c-0.276 0-0.5 0.224-0.5 0.5S16.557 25.167 16.833 25.167z" fill="#000000" data-fill-palette-color="accent"></path><path d="M26.5 72.167h-9.667c-0.276 0-0.5 0.224-0.5 0.5s0.224 0.5 0.5 0.5H26.5c0.276 0 0.5-0.224 0.5-0.5S26.776 72.167 26.5 72.167z" fill="#000000" data-fill-palette-color="accent"></path><path d="M26.5 75.167h-9.667c-0.276 0-0.5 0.224-0.5 0.5s0.224 0.5 0.5 0.5H26.5c0.276 0 0.5-0.224 0.5-0.5S26.776 75.167 26.5 75.167z" fill="#000000" data-fill-palette-color="accent"></path><path d="M26.5 78.167h-9.667c-0.276 0-0.5 0.224-0.5 0.5s0.224 0.5 0.5 0.5H26.5c0.276 0 0.5-0.224 0.5-0.5S26.776 78.167 26.5 78.167z" fill="#000000" data-fill-palette-color="accent"></path><path d="M76.833 19.167H86.5c0.276 0 0.5-0.224 0.5-0.5s-0.224-0.5-0.5-0.5h-9.667c-0.276 0-0.5 0.224-0.5 0.5S76.557 19.167 76.833 19.167z" fill="#000000" data-fill-palette-color="accent"></path><path d="M76.833 22.167H86.5c0.276 0 0.5-0.224 0.5-0.5s-0.224-0.5-0.5-0.5h-9.667c-0.276 0-0.5 0.224-0.5 0.5S76.557 22.167 76.833 22.167z" fill="#000000" data-fill-palette-color="accent"></path><path d="M76.833 25.167H86.5c0.276 0 0.5-0.224 0.5-0.5s-0.224-0.5-0.5-0.5h-9.667c-0.276 0-0.5 0.224-0.5 0.5S76.557 25.167 76.833 25.167z" fill="#000000" data-fill-palette-color="accent"></path><path d="M86.5 72.167h-9.667c-0.276 0-0.5 0.224-0.5 0.5s0.224 0.5 0.5 0.5H86.5c0.276 0 0.5-0.224 0.5-0.5S86.776 72.167 86.5 72.167z" fill="#000000" data-fill-palette-color="accent"></path><path d="M86.5 75.167h-9.667c-0.276 0-0.5 0.224-0.5 0.5s0.224 0.5 0.5 0.5H86.5c0.276 0 0.5-0.224 0.5-0.5S86.776 75.167 86.5 75.167z" fill="#000000" data-fill-palette-color="accent"></path><path d="M86.5 78.167h-9.667c-0.276 0-0.5 0.224-0.5 0.5s0.224 0.5 0.5 0.5H86.5c0.276 0 0.5-0.224 0.5-0.5S86.776 78.167 86.5 78.167z" fill="#000000" data-fill-palette-color="accent"></path><path d="M59.43 9.5h-6.26-2.337H33.17h-2.34-20v78.33h20 2.34 17.663v0.004h8.649L59.43 87.83h0.05l7.85 0.54V8.96L59.48 9.5H59.43zM30.83 85.83h-18V11.5h18V85.83zM33.17 28.38h2.16v1.41h-2.16V28.38zM50.833 85.83H33.17v-7h17.663V85.83zM50.833 77.83H33.17v-2.46h17.663V77.83zM50.833 74.37H33.17V30.54h2.16v1.72c0 0.47 0.26 0.87 0.65 1.08h0.01c0.001 0 0.001 0 0.002 0.001-2.815 3.443-1.452 32.435-0.825 34.159 0.667 1.833 2.593 1.789 3 0 0.783-3.445 2.007-30.872-0.966-34.171 0.379-0.21 0.629-0.61 0.629-1.069v-1.72h13.003V74.37zM36.33 32.26v-4.35c0-0.13 0.11-0.24 0.26-0.24 0.13 0 0.24 0.11 0.24 0.24v4.35c0 0.13-0.11 0.24-0.24 0.24h-0.01C36.44 32.5 36.33 32.39 36.33 32.26zM50.833 29.79H37.83v-1.41h13.003V29.79zM50.833 27.62H37.79c-0.12-0.55-0.61-0.95-1.21-0.95-0.59 0-1.08 0.4-1.21 0.95h-2.2v-2.79h17.66 0.003V27.62zM50.833 23.83H50.83 33.17v-2.46h17.663V23.83zM50.833 20.37H33.17V11.5h17.663V20.37zM53.17 87.403V87.4l6.235 0.428L53.17 87.403zM66.33 87.3l-13.16-0.9V10.94l13.16-0.9V87.3z" fill="#000000" data-fill-palette-color="accent"></path><path d="M68 18.667c0-0.276-0.224-0.5-0.5-0.5h-0.167v1H67.5C67.776 19.167 68 18.943 68 18.667z" fill="#000000" data-fill-palette-color="accent"></path><path d="M68 21.667c0-0.276-0.224-0.5-0.5-0.5h-0.167v1H67.5C67.776 22.167 68 21.943 68 21.667z" fill="#000000" data-fill-palette-color="accent"></path><path d="M68 24.667c0-0.276-0.224-0.5-0.5-0.5h-0.167v1H67.5C67.776 25.167 68 24.943 68 24.667z" fill="#000000" data-fill-palette-color="accent"></path><path d="M68 72.667c0-0.276-0.224-0.5-0.5-0.5h-0.167v1H67.5C67.776 73.167 68 72.943 68 72.667z" fill="#000000" data-fill-palette-color="accent"></path><path d="M68 75.667c0-0.276-0.224-0.5-0.5-0.5h-0.167v1H67.5C67.776 76.167 68 75.943 68 75.667z" fill="#000000" data-fill-palette-color="accent"></path><path d="M68 78.667c0-0.276-0.224-0.5-0.5-0.5h-0.167v1H67.5C67.776 79.167 68 78.943 68 78.667z" fill="#000000" data-fill-palette-color="accent"></path></g></svg></g></svg></g></svg></g></svg></g><g></g></svg></g><defs></defs></svg><rect width="395.52" height="129.66928994515496" fill="none" stroke="none" visibility="hidden"></rect></g></svg></g></svg>